# xmcd
#
# Track frame offsets:
#	150
#	14088
#	26039
#	35840
#	52313
#	65698
#	80918
#	97040
#	111754
#	127940
#	138802
#	151373
#	164224
#	174446
#	186615
#	197700
#	209129
#	219294
#	230113
#	241015
#
# Disc length: 3361 seconds
#
# Revision: 0
# Processed by: cddbd v1.4PL0 Copyright (c) Steve Scherf et al.
# Submitted via: dBpowerAMP V4.0
#
DISCID=3a0d1f14
DTITLE=Craig Byrne - Playing Favourites Volume 2
DYEAR=1900
DGENRE=Country
TTITLE0=Gentle On My Mind
TTITLE1=Hey Good Looking
TTITLE2=Just Married
TTITLE3=Looking For Love
TTITLE4=Four In The Morning
TTITLE5=Cookie And Lila
TTITLE6=Good Hearted Woman
TTITLE7=Rambling Fever
TTITLE8=Mama Don't Let Your Babies (Grow Up To Be Cowboys)
TTITLE9=Hello Walls
TTITLE10=Is Anybody Going To San Antone
TTITLE11=She Thinks I Still Care
TTITLE12=Shutters And Boards
TTITLE13=Rolling With The Flow
TTITLE14=Mama Tried
TTITLE15=Story Of My Life
TTITLE16=Travelling Man
TTITLE17=Unwound
TTITLE18=A White Sport Coat
TTITLE19=On The Road Again
EXTD=
EXTT0=
EXTT1=
EXTT2=
EXTT3=
EXTT4=
EXTT5=
EXTT6=
EXTT7=
EXTT8=
EXTT9=
EXTT10=
EXTT11=
EXTT12=
EXTT13=
EXTT14=
EXTT15=
EXTT16=
EXTT17=
EXTT18=
EXTT19=
PLAYORDER=
